<?xml version="1.0" encoding="UTF-8" standalone="no"?>
<!DOCTYPE svg PUBLIC "-//W3C//DTD SVG 1.1//EN"
 "http://www.w3.org/Graphics/SVG/1.1/DTD/svg11.dtd">
<!-- Generated by graphviz version 9.0.0 (20230911.1827)
 -->
<!-- Pages: 1 -->
<svg width="998pt" height="350pt"
 viewBox="0.00 0.00 997.75 350.00" xmlns="http://www.w3.org/2000/svg" xmlns:xlink="http://www.w3.org/1999/xlink">
<g id="graph0" class="graph" transform="scale(1 1) rotate(0) translate(4 346)">
<polygon fill="#000000" fill-opacity="0.062745" stroke="none" points="-4,4 -4,-346 993.75,-346 993.75,4 -4,4"/>
<!-- Commands/CheckUpdateCommand.swift -->
<g id="node1" class="node">
<title>Commands/CheckUpdateCommand.swift</title>
<polygon fill="white" stroke="white" points="355.25,-342 110.5,-342 110.5,-306 355.25,-306 355.25,-342"/>
<text text-anchor="middle" x="232.88" y="-318.95" font-family="Times,serif" font-size="14.00">Commands/CheckUpdateCommand.swift</text>
</g>
<!-- Commands/FrontendCommand.swift -->
<g id="node3" class="node">
<title>Commands/FrontendCommand.swift</title>
<polygon fill="white" stroke="white" points="611.25,-258 391.25,-258 391.25,-222 611.25,-222 611.25,-258"/>
<text text-anchor="middle" x="501.25" y="-234.95" font-family="Times,serif" font-size="14.00">Commands/FrontendCommand.swift</text>
</g>
<!-- Commands/CheckUpdateCommand.swift&#45;&gt;Commands/FrontendCommand.swift -->
<g id="edge1" class="edge">
<title>Commands/CheckUpdateCommand.swift&#45;&gt;Commands/FrontendCommand.swift</title>
<path fill="none" stroke="black" d="M332.31,-305.57C340.2,-303.05 347.93,-300.21 355.25,-297 373.09,-289.18 373.68,-280.41 391.25,-272 398.73,-268.42 406.7,-265.15 414.79,-262.19"/>
<polygon fill="black" stroke="black" points="415.74,-265.56 424.04,-258.97 413.44,-258.95 415.74,-265.56"/>
</g>
<!-- UpdateChecker.swift -->
<g id="node12" class="node">
<title>UpdateChecker.swift</title>
<polygon fill="white" stroke="white" points="777.25,-258 647.25,-258 647.25,-222 777.25,-222 777.25,-258"/>
<text text-anchor="middle" x="712.25" y="-234.95" font-family="Times,serif" font-size="14.00">UpdateChecker.swift</text>
</g>
<!-- Commands/CheckUpdateCommand.swift&#45;&gt;UpdateChecker.swift -->
<g id="edge2" class="edge">
<title>Commands/CheckUpdateCommand.swift&#45;&gt;UpdateChecker.swift</title>
<path fill="none" stroke="black" d="M355.59,-309.19C429.84,-299.28 526.46,-284.79 611.25,-267 619.39,-265.29 627.85,-263.32 636.25,-261.24"/>
<polygon fill="black" stroke="black" points="636.93,-264.67 645.76,-258.82 635.21,-257.89 636.93,-264.67"/>
</g>
<!-- Version.swift -->
<g id="node13" class="node">
<title>Version.swift</title>
<polygon fill="white" stroke="white" points="945.5,-247 857.5,-247 857.5,-211 945.5,-211 945.5,-247"/>
<text text-anchor="middle" x="901.5" y="-223.95" font-family="Times,serif" font-size="14.00">Version.swift</text>
</g>
<!-- Commands/CheckUpdateCommand.swift&#45;&gt;Version.swift -->
<g id="edge3" class="edge">
<title>Commands/CheckUpdateCommand.swift&#45;&gt;Version.swift</title>
<path fill="none" stroke="black" d="M355.34,-319.79C429.49,-316.27 526.1,-309.98 611.25,-299 685.77,-289.39 704.35,-285.21 777.25,-267 800.1,-261.29 824.97,-253.86 846.35,-247.09"/>
<polygon fill="black" stroke="black" points="847.29,-250.46 855.75,-244.08 845.16,-243.8 847.29,-250.46"/>
</g>
<!-- Commands/ClearCacheCommand.swift -->
<g id="node2" class="node">
<title>Commands/ClearCacheCommand.swift</title>
<polygon fill="white" stroke="white" points="350,-288 115.75,-288 115.75,-252 350,-252 350,-288"/>
<text text-anchor="middle" x="232.88" y="-264.95" font-family="Times,serif" font-size="14.00">Commands/ClearCacheCommand.swift</text>
</g>
<!-- Commands/ClearCacheCommand.swift&#45;&gt;Commands/FrontendCommand.swift -->
<g id="edge4" class="edge">
<title>Commands/ClearCacheCommand.swift&#45;&gt;Commands/FrontendCommand.swift</title>
<path fill="none" stroke="black" d="M350.32,-256.89C359.98,-255.8 369.76,-254.7 379.45,-253.6"/>
<polygon fill="black" stroke="black" points="379.73,-257.1 389.27,-252.5 378.94,-250.14 379.73,-257.1"/>
</g>
<!-- Commands/ScanBehavior.swift -->
<g id="node4" class="node">
<title>Commands/ScanBehavior.swift</title>
<polygon fill="white" stroke="white" points="595.5,-142 407,-142 407,-106 595.5,-106 595.5,-142"/>
<text text-anchor="middle" x="501.25" y="-118.95" font-family="Times,serif" font-size="14.00">Commands/ScanBehavior.swift</text>
</g>
<!-- GuidedSetup.swift -->
<g id="node8" class="node">
<title>GuidedSetup.swift</title>
<polygon fill="white" stroke="white" points="770.88,-128 653.62,-128 653.62,-92 770.88,-92 770.88,-128"/>
<text text-anchor="middle" x="712.25" y="-104.95" font-family="Times,serif" font-size="14.00">GuidedSetup.swift</text>
</g>
<!-- Commands/ScanBehavior.swift&#45;&gt;GuidedSetup.swift -->
<g id="edge5" class="edge">
<title>Commands/ScanBehavior.swift&#45;&gt;GuidedSetup.swift</title>
<path fill="none" stroke="black" d="M595.75,-117.74C611.34,-116.69 627.26,-115.63 642.1,-114.63"/>
<polygon fill="black" stroke="black" points="641.96,-118.15 651.7,-113.99 641.49,-111.17 641.96,-118.15"/>
</g>
<!-- Project.swift -->
<g id="node9" class="node">
<title>Project.swift</title>
<polygon fill="white" stroke="white" points="944,-74 859,-74 859,-38 944,-38 944,-74"/>
<text text-anchor="middle" x="901.5" y="-50.95" font-family="Times,serif" font-size="14.00">Project.swift</text>
</g>
<!-- Commands/ScanBehavior.swift&#45;&gt;Project.swift -->
<g id="edge6" class="edge">
<title>Commands/ScanBehavior.swift&#45;&gt;Project.swift</title>
<path fill="none" stroke="black" d="M558.87,-105.58C585.45,-97.56 617.71,-88.71 647.25,-83 715.66,-69.78 795.81,-62.6 847.32,-59.04"/>
<polygon fill="black" stroke="black" points="847.25,-62.55 856.99,-58.4 846.78,-55.57 847.25,-62.55"/>
</g>
<!-- Commands/ScanBehavior.swift&#45;&gt;UpdateChecker.swift -->
<g id="edge7" class="edge">
<title>Commands/ScanBehavior.swift&#45;&gt;UpdateChecker.swift</title>
<path fill="none" stroke="black" d="M535.37,-142.38C571.26,-162.3 628.68,-194.17 668.09,-216.04"/>
<polygon fill="black" stroke="black" points="666.18,-218.99 676.62,-220.78 669.57,-212.87 666.18,-218.99"/>
</g>
<!-- Commands/ScanBehavior.swift&#45;&gt;Version.swift -->
<g id="edge8" class="edge">
<title>Commands/ScanBehavior.swift&#45;&gt;Version.swift</title>
<path fill="none" stroke="black" d="M595.87,-138.81C649.54,-148.35 717.83,-162.29 777.25,-180 801.33,-187.18 827.28,-197.14 849.13,-206.21"/>
<polygon fill="black" stroke="black" points="847.53,-209.33 858.11,-209.99 850.25,-202.88 847.53,-209.33"/>
</g>
<!-- Commands/ScanCommand.swift -->
<g id="node5" class="node">
<title>Commands/ScanCommand.swift</title>
<polygon fill="white" stroke="white" points="331.62,-142 134.12,-142 134.12,-106 331.62,-106 331.62,-142"/>
<text text-anchor="middle" x="232.88" y="-118.95" font-family="Times,serif" font-size="14.00">Commands/ScanCommand.swift</text>
</g>
<!-- Commands/ScanCommand.swift&#45;&gt;Commands/FrontendCommand.swift -->
<g id="edge9" class="edge">
<title>Commands/ScanCommand.swift&#45;&gt;Commands/FrontendCommand.swift</title>
<path fill="none" stroke="black" d="M330.51,-142.4C338.99,-144.94 347.35,-147.8 355.25,-151 396.08,-167.53 438.55,-195.01 466.89,-215.07"/>
<polygon fill="black" stroke="black" points="464.54,-217.69 474.71,-220.67 468.62,-212 464.54,-217.69"/>
</g>
<!-- Commands/ScanCommand.swift&#45;&gt;Commands/ScanBehavior.swift -->
<g id="edge10" class="edge">
<title>Commands/ScanCommand.swift&#45;&gt;Commands/ScanBehavior.swift</title>
<path fill="none" stroke="black" d="M331.93,-124C352.58,-124 374.45,-124 395.34,-124"/>
<polygon fill="black" stroke="black" points="395.32,-127.5 405.32,-124 395.32,-120.5 395.32,-127.5"/>
</g>
<!-- Scan.swift -->
<g id="node11" class="node">
<title>Scan.swift</title>
<polygon fill="white" stroke="white" points="748.75,-36 675.75,-36 675.75,0 748.75,0 748.75,-36"/>
<text text-anchor="middle" x="712.25" y="-12.95" font-family="Times,serif" font-size="14.00">Scan.swift</text>
</g>
<!-- Commands/ScanCommand.swift&#45;&gt;Scan.swift -->
<g id="edge11" class="edge">
<title>Commands/ScanCommand.swift&#45;&gt;Scan.swift</title>
<path fill="none" stroke="black" d="M317.03,-105.54C417.8,-83.16 584.1,-46.23 664.65,-28.35"/>
<polygon fill="black" stroke="black" points="664.95,-31.87 673.95,-26.28 663.43,-25.03 664.95,-31.87"/>
</g>
<!-- Commands/VersionCommand.swift -->
<g id="node6" class="node">
<title>Commands/VersionCommand.swift</title>
<polygon fill="white" stroke="white" points="339.12,-196 126.62,-196 126.62,-160 339.12,-160 339.12,-196"/>
<text text-anchor="middle" x="232.88" y="-172.95" font-family="Times,serif" font-size="14.00">Commands/VersionCommand.swift</text>
</g>
<!-- Commands/VersionCommand.swift&#45;&gt;Commands/FrontendCommand.swift -->
<g id="edge12" class="edge">
<title>Commands/VersionCommand.swift&#45;&gt;Commands/FrontendCommand.swift</title>
<path fill="none" stroke="black" d="M313.08,-196.43C343.53,-203.52 378.52,-211.67 409.94,-218.98"/>
<polygon fill="black" stroke="black" points="408.89,-222.33 419.42,-221.19 410.47,-215.51 408.89,-222.33"/>
</g>
<!-- Commands/VersionCommand.swift&#45;&gt;Version.swift -->
<g id="edge13" class="edge">
<title>Commands/VersionCommand.swift&#45;&gt;Version.swift</title>
<path fill="none" stroke="black" d="M339.48,-182.77C449.08,-188.2 625.41,-198.27 777.25,-213 799.82,-215.19 824.64,-218.28 846.05,-221.16"/>
<polygon fill="black" stroke="black" points="845.35,-224.6 855.73,-222.48 846.29,-217.66 845.35,-224.6"/>
</g>
<!-- CommonSetupGuide.swift -->
<g id="node7" class="node">
<title>CommonSetupGuide.swift</title>
<polygon fill="white" stroke="white" points="982.62,-182 820.38,-182 820.38,-146 982.62,-146 982.62,-182"/>
<text text-anchor="middle" x="901.5" y="-158.95" font-family="Times,serif" font-size="14.00">CommonSetupGuide.swift</text>
</g>
<!-- GuidedSetup.swift&#45;&gt;CommonSetupGuide.swift -->
<g id="edge14" class="edge">
<title>GuidedSetup.swift&#45;&gt;CommonSetupGuide.swift</title>
<path fill="none" stroke="black" d="M771.21,-126.72C788.46,-131.69 807.61,-137.21 825.77,-142.45"/>
<polygon fill="black" stroke="black" points="824.59,-145.75 835.16,-145.16 826.53,-139.02 824.59,-145.75"/>
</g>
<!-- GuidedSetup.swift&#45;&gt;Project.swift -->
<g id="edge15" class="edge">
<title>GuidedSetup.swift&#45;&gt;Project.swift</title>
<path fill="none" stroke="black" d="M771.21,-93.28C795.6,-86.25 823.78,-78.12 847.6,-71.26"/>
<polygon fill="black" stroke="black" points="848.46,-74.65 857.1,-68.52 846.52,-67.92 848.46,-74.65"/>
</g>
<!-- SPMProjectSetupGuide.swift -->
<g id="node10" class="node">
<title>SPMProjectSetupGuide.swift</title>
<polygon fill="white" stroke="white" points="989.75,-128 813.25,-128 813.25,-92 989.75,-92 989.75,-128"/>
<text text-anchor="middle" x="901.5" y="-104.95" font-family="Times,serif" font-size="14.00">SPMProjectSetupGuide.swift</text>
</g>
<!-- GuidedSetup.swift&#45;&gt;SPMProjectSetupGuide.swift -->
<g id="edge16" class="edge">
<title>GuidedSetup.swift&#45;&gt;SPMProjectSetupGuide.swift</title>
<path fill="none" stroke="black" d="M771.21,-110C780.92,-110 791.22,-110 801.61,-110"/>
<polygon fill="black" stroke="black" points="801.38,-113.5 811.38,-110 801.38,-106.5 801.38,-113.5"/>
</g>
<!-- Scan.swift&#45;&gt;Project.swift -->
<g id="edge17" class="edge">
<title>Scan.swift&#45;&gt;Project.swift</title>
<path fill="none" stroke="black" d="M748.91,-25.24C776.79,-30.89 815.97,-38.85 847.52,-45.25"/>
<polygon fill="black" stroke="black" points="846.78,-48.67 857.28,-47.23 848.17,-41.81 846.78,-48.67"/>
</g>
<!-- UpdateChecker.swift&#45;&gt;Version.swift -->
<g id="edge18" class="edge">
<title>UpdateChecker.swift&#45;&gt;Version.swift</title>
<path fill="none" stroke="black" d="M777.69,-236.21C799.83,-234.91 824.38,-233.47 845.68,-232.22"/>
<polygon fill="black" stroke="black" points="845.86,-235.72 855.63,-231.64 845.45,-228.73 845.86,-235.72"/>
</g>
<!-- main.swift -->
<g id="node14" class="node">
<title>main.swift</title>
<polygon fill="white" stroke="white" points="74.5,-242 0,-242 0,-206 74.5,-206 74.5,-242"/>
<text text-anchor="middle" x="37.25" y="-218.95" font-family="Times,serif" font-size="14.00">main.swift</text>
</g>
<!-- main.swift&#45;&gt;Commands/CheckUpdateCommand.swift -->
<g id="edge19" class="edge">
<title>main.swift&#45;&gt;Commands/CheckUpdateCommand.swift</title>
<path fill="none" stroke="black" d="M51.31,-242.23C64.37,-259.07 86,-283.46 110.5,-297 113.15,-298.47 115.88,-299.85 118.67,-301.16"/>
<polygon fill="black" stroke="black" points="117.02,-304.27 127.59,-304.99 119.78,-297.83 117.02,-304.27"/>
</g>
<!-- main.swift&#45;&gt;Commands/ClearCacheCommand.swift -->
<g id="edge20" class="edge">
<title>main.swift&#45;&gt;Commands/ClearCacheCommand.swift</title>
<path fill="none" stroke="black" d="M74.67,-232.65C94.14,-237.28 119.05,-243.2 143.26,-248.95"/>
<polygon fill="black" stroke="black" points="142.31,-252.32 152.84,-251.22 143.92,-245.51 142.31,-252.32"/>
</g>
<!-- main.swift&#45;&gt;Commands/FrontendCommand.swift -->
<g id="edge21" class="edge">
<title>main.swift&#45;&gt;Commands/FrontendCommand.swift</title>
<path fill="none" stroke="black" d="M74.89,-225.27C140,-227.52 278.53,-232.32 379.87,-235.83"/>
<polygon fill="black" stroke="black" points="379.48,-239.32 389.59,-236.17 379.72,-232.32 379.48,-239.32"/>
</g>
<!-- main.swift&#45;&gt;Commands/ScanCommand.swift -->
<g id="edge22" class="edge">
<title>main.swift&#45;&gt;Commands/ScanCommand.swift</title>
<path fill="none" stroke="black" d="M51.31,-205.77C64.37,-188.93 86,-164.54 110.5,-151 114.59,-148.74 118.86,-146.67 123.25,-144.77"/>
<polygon fill="black" stroke="black" points="124.24,-148.14 132.26,-141.21 121.67,-141.63 124.24,-148.14"/>
</g>
<!-- main.swift&#45;&gt;Commands/VersionCommand.swift -->
<g id="edge23" class="edge">
<title>main.swift&#45;&gt;Commands/VersionCommand.swift</title>
<path fill="none" stroke="black" d="M74.67,-215.35C94.14,-210.72 119.05,-204.8 143.26,-199.05"/>
<polygon fill="black" stroke="black" points="143.92,-202.49 152.84,-196.78 142.31,-195.68 143.92,-202.49"/>
</g>
</g>
</svg>
