<?xml version="1.0" encoding="UTF-8" standalone="no"?>
<!DOCTYPE svg PUBLIC "-//W3C//DTD SVG 1.1//EN"
 "http://www.w3.org/Graphics/SVG/1.1/DTD/svg11.dtd">
<!-- Generated by graphviz version 9.0.0 (20230911.1827)
 -->
<!-- Pages: 1 -->
<svg width="864pt" height="446pt"
 viewBox="0.00 0.00 864.25 445.94" xmlns="http://www.w3.org/2000/svg" xmlns:xlink="http://www.w3.org/1999/xlink">
<g id="graph0" class="graph" transform="scale(1 1) rotate(0) translate(4 441.94)">
<polygon fill="#000000" fill-opacity="0.062745" stroke="none" points="-4,4 -4,-441.94 860.25,-441.94 860.25,4 -4,4"/>
<g id="clust1" class="cluster">
<title>cluster_Commands</title>
<polygon fill="#000000" fill-opacity="0.062745" stroke="#000000" stroke-opacity="0.188235" points="102.5,-33 102.5,-272 485.75,-272 485.75,-33 102.5,-33"/>
<text text-anchor="middle" x="294.12" y="-254.7" font-family="Times,serif" font-size="14.00">Commands</text>
</g>
<!-- Commands/CheckUpdateCommand.swift -->
<g id="node1" class="node">
<title>Commands/CheckUpdateCommand.swift</title>
<polygon fill="white" stroke="white" points="288.5,-239 110.5,-239 110.5,-203 288.5,-203 288.5,-239"/>
<text text-anchor="middle" x="199.5" y="-215.95" font-family="Times,serif" font-size="14.00">CheckUpdateCommand.swift</text>
</g>
<!-- Commands/FrontendCommand.swift -->
<g id="node3" class="node">
<title>Commands/FrontendCommand.swift</title>
<polygon fill="white" stroke="white" points="477.75,-185 324.5,-185 324.5,-149 477.75,-149 477.75,-185"/>
<text text-anchor="middle" x="401.12" y="-161.95" font-family="Times,serif" font-size="14.00">FrontendCommand.swift</text>
</g>
<!-- Commands/CheckUpdateCommand.swift&#45;&gt;Commands/FrontendCommand.swift -->
<g id="edge1" class="edge">
<title>Commands/CheckUpdateCommand.swift&#45;&gt;Commands/FrontendCommand.swift</title>
<path fill="none" stroke="black" d="M268.64,-202.57C285.57,-197.99 303.86,-193.04 321.25,-188.33"/>
<polygon fill="black" stroke="black" points="321.75,-191.83 330.49,-185.84 319.92,-185.07 321.75,-191.83"/>
</g>
<!-- UpdateChecker.swift -->
<g id="node12" class="node">
<title>UpdateChecker.swift</title>
<polygon fill="white" stroke="white" points="643.75,-404 513.75,-404 513.75,-368 643.75,-368 643.75,-404"/>
<text text-anchor="middle" x="578.75" y="-380.95" font-family="Times,serif" font-size="14.00">UpdateChecker.swift</text>
</g>
<!-- Commands/CheckUpdateCommand.swift&#45;&gt;UpdateChecker.swift -->
<g id="edge2" class="edge">
<title>Commands/CheckUpdateCommand.swift&#45;&gt;UpdateChecker.swift</title>
<path fill="none" stroke="black" d="M210.73,-239.05C229.1,-269.53 270.8,-330.54 324.5,-358 379.36,-386.05 449.49,-391.86 502.03,-391.34"/>
<polygon fill="black" stroke="black" points="501.85,-394.84 511.79,-391.15 501.72,-387.84 501.85,-394.84"/>
</g>
<!-- Version.swift -->
<g id="node13" class="node">
<title>Version.swift</title>
<polygon fill="white" stroke="white" points="812,-381 724,-381 724,-345 812,-345 812,-381"/>
<text text-anchor="middle" x="768" y="-357.95" font-family="Times,serif" font-size="14.00">Version.swift</text>
</g>
<!-- Commands/CheckUpdateCommand.swift&#45;&gt;Version.swift -->
<g id="edge3" class="edge">
<title>Commands/CheckUpdateCommand.swift&#45;&gt;Version.swift</title>
<path fill="none" stroke="black" d="M208.17,-239.39C224.04,-274.89 264.12,-352.48 324.5,-388 447.17,-460.16 504.06,-440.26 643.75,-413 670.55,-407.77 698.9,-396.7 721.64,-386.3"/>
<polygon fill="black" stroke="black" points="723.06,-389.5 730.62,-382.08 720.08,-383.17 723.06,-389.5"/>
</g>
<!-- Commands/ClearCacheCommand.swift -->
<g id="node2" class="node">
<title>Commands/ClearCacheCommand.swift</title>
<polygon fill="white" stroke="white" points="283.25,-77 115.75,-77 115.75,-41 283.25,-41 283.25,-77"/>
<text text-anchor="middle" x="199.5" y="-53.95" font-family="Times,serif" font-size="14.00">ClearCacheCommand.swift</text>
</g>
<!-- Commands/ClearCacheCommand.swift&#45;&gt;Commands/FrontendCommand.swift -->
<g id="edge4" class="edge">
<title>Commands/ClearCacheCommand.swift&#45;&gt;Commands/FrontendCommand.swift</title>
<path fill="none" stroke="black" d="M274.43,-77.37C279.39,-79.89 284.14,-82.75 288.5,-86 311.63,-103.23 301.76,-122.25 324.5,-140 325.8,-141.02 327.15,-142 328.53,-142.95"/>
<polygon fill="black" stroke="black" points="326.42,-145.76 336.79,-147.92 330.03,-139.76 326.42,-145.76"/>
</g>
<!-- Commands/ScanBehavior.swift -->
<g id="node4" class="node">
<title>Commands/ScanBehavior.swift</title>
<polygon fill="white" stroke="white" points="462,-131 340.25,-131 340.25,-95 462,-95 462,-131"/>
<text text-anchor="middle" x="401.12" y="-107.95" font-family="Times,serif" font-size="14.00">ScanBehavior.swift</text>
</g>
<!-- GuidedSetup.swift -->
<g id="node8" class="node">
<title>GuidedSetup.swift</title>
<polygon fill="white" stroke="white" points="637.38,-131 520.12,-131 520.12,-95 637.38,-95 637.38,-131"/>
<text text-anchor="middle" x="578.75" y="-107.95" font-family="Times,serif" font-size="14.00">GuidedSetup.swift</text>
</g>
<!-- Commands/ScanBehavior.swift&#45;&gt;GuidedSetup.swift -->
<g id="edge5" class="edge">
<title>Commands/ScanBehavior.swift&#45;&gt;GuidedSetup.swift</title>
<path fill="none" stroke="black" d="M462.07,-113C477.11,-113 493.35,-113 508.79,-113"/>
<polygon fill="black" stroke="black" points="508.34,-116.5 518.34,-113 508.34,-109.5 508.34,-116.5"/>
</g>
<!-- Project.swift -->
<g id="node9" class="node">
<title>Project.swift</title>
<polygon fill="white" stroke="white" points="810.5,-185 725.5,-185 725.5,-149 810.5,-149 810.5,-185"/>
<text text-anchor="middle" x="768" y="-161.95" font-family="Times,serif" font-size="14.00">Project.swift</text>
</g>
<!-- Commands/ScanBehavior.swift&#45;&gt;Project.swift -->
<g id="edge6" class="edge">
<title>Commands/ScanBehavior.swift&#45;&gt;Project.swift</title>
<path fill="none" stroke="black" d="M462.36,-129.1C478.93,-133.11 496.95,-137.09 513.75,-140 582.4,-151.91 662.49,-159.39 713.93,-163.38"/>
<polygon fill="black" stroke="black" points="713.35,-166.84 723.58,-164.11 713.87,-159.86 713.35,-166.84"/>
</g>
<!-- Commands/ScanBehavior.swift&#45;&gt;UpdateChecker.swift -->
<g id="edge7" class="edge">
<title>Commands/ScanBehavior.swift&#45;&gt;UpdateChecker.swift</title>
<path fill="none" stroke="black" d="M462.45,-124.55C471.09,-128.33 479.24,-133.34 485.75,-140 516.22,-171.17 499.05,-192.96 513.75,-234 529.4,-277.69 550.89,-326.99 564.55,-357.28"/>
<polygon fill="black" stroke="black" points="561.26,-358.5 568.58,-366.16 567.63,-355.61 561.26,-358.5"/>
</g>
<!-- Commands/ScanBehavior.swift&#45;&gt;Version.swift -->
<g id="edge8" class="edge">
<title>Commands/ScanBehavior.swift&#45;&gt;Version.swift</title>
<path fill="none" stroke="black" d="M462.15,-129.47C470.27,-132.54 478.35,-136.04 485.75,-140 487.49,-140.93 662.19,-279.71 735.34,-337.84"/>
<polygon fill="black" stroke="black" points="732.96,-340.42 742.97,-343.9 737.32,-334.94 732.96,-340.42"/>
</g>
<!-- Commands/ScanCommand.swift -->
<g id="node5" class="node">
<title>Commands/ScanCommand.swift</title>
<polygon fill="white" stroke="white" points="264.88,-131 134.12,-131 134.12,-95 264.88,-95 264.88,-131"/>
<text text-anchor="middle" x="199.5" y="-107.95" font-family="Times,serif" font-size="14.00">ScanCommand.swift</text>
</g>
<!-- Commands/ScanCommand.swift&#45;&gt;Commands/FrontendCommand.swift -->
<g id="edge9" class="edge">
<title>Commands/ScanCommand.swift&#45;&gt;Commands/FrontendCommand.swift</title>
<path fill="none" stroke="black" d="M265.31,-130.53C283.03,-135.32 302.42,-140.57 320.84,-145.55"/>
<polygon fill="black" stroke="black" points="319.83,-148.91 330.4,-148.14 321.66,-142.15 319.83,-148.91"/>
</g>
<!-- Commands/ScanCommand.swift&#45;&gt;Commands/ScanBehavior.swift -->
<g id="edge10" class="edge">
<title>Commands/ScanCommand.swift&#45;&gt;Commands/ScanBehavior.swift</title>
<path fill="none" stroke="black" d="M265.31,-113C285.58,-113 308.05,-113 328.75,-113"/>
<polygon fill="black" stroke="black" points="328.52,-116.5 338.52,-113 328.52,-109.5 328.52,-116.5"/>
</g>
<!-- Scan.swift -->
<g id="node11" class="node">
<title>Scan.swift</title>
<polygon fill="white" stroke="white" points="437.62,-316 364.62,-316 364.62,-280 437.62,-280 437.62,-316"/>
<text text-anchor="middle" x="401.12" y="-292.95" font-family="Times,serif" font-size="14.00">Scan.swift</text>
</g>
<!-- Commands/ScanCommand.swift&#45;&gt;Scan.swift -->
<g id="edge11" class="edge">
<title>Commands/ScanCommand.swift&#45;&gt;Scan.swift</title>
<path fill="none" stroke="black" d="M265.02,-124.29C273.77,-128.11 281.96,-133.2 288.5,-140 331.84,-185.06 280.83,-231.25 324.5,-276 332.23,-283.92 342.62,-289.03 353.23,-292.31"/>
<polygon fill="black" stroke="black" points="352.23,-295.67 362.79,-294.75 353.96,-288.89 352.23,-295.67"/>
</g>
<!-- Commands/VersionCommand.swift -->
<g id="node6" class="node">
<title>Commands/VersionCommand.swift</title>
<polygon fill="white" stroke="white" points="272.38,-185 126.62,-185 126.62,-149 272.38,-149 272.38,-185"/>
<text text-anchor="middle" x="199.5" y="-161.95" font-family="Times,serif" font-size="14.00">VersionCommand.swift</text>
</g>
<!-- Commands/VersionCommand.swift&#45;&gt;Commands/FrontendCommand.swift -->
<g id="edge12" class="edge">
<title>Commands/VersionCommand.swift&#45;&gt;Commands/FrontendCommand.swift</title>
<path fill="none" stroke="black" d="M272.85,-167C285.93,-167 299.68,-167 313.13,-167"/>
<polygon fill="black" stroke="black" points="312.81,-170.5 322.81,-167 312.81,-163.5 312.81,-170.5"/>
</g>
<!-- Commands/VersionCommand.swift&#45;&gt;Version.swift -->
<g id="edge13" class="edge">
<title>Commands/VersionCommand.swift&#45;&gt;Version.swift</title>
<path fill="none" stroke="black" d="M272.79,-182.2C278.58,-185.41 283.94,-189.3 288.5,-194 330.56,-237.32 278.09,-286.37 324.5,-325 339.2,-337.23 596.98,-353.33 712.17,-359.96"/>
<polygon fill="black" stroke="black" points="711.82,-363.44 722.01,-360.52 712.22,-356.45 711.82,-363.44"/>
</g>
<!-- CommonSetupGuide.swift -->
<g id="node7" class="node">
<title>CommonSetupGuide.swift</title>
<polygon fill="white" stroke="white" points="849.12,-131 686.88,-131 686.88,-95 849.12,-95 849.12,-131"/>
<text text-anchor="middle" x="768" y="-107.95" font-family="Times,serif" font-size="14.00">CommonSetupGuide.swift</text>
</g>
<!-- GuidedSetup.swift&#45;&gt;CommonSetupGuide.swift -->
<g id="edge14" class="edge">
<title>GuidedSetup.swift&#45;&gt;CommonSetupGuide.swift</title>
<path fill="none" stroke="black" d="M637.71,-113C649.68,-113 662.55,-113 675.38,-113"/>
<polygon fill="black" stroke="black" points="675.1,-116.5 685.1,-113 675.1,-109.5 675.1,-116.5"/>
</g>
<!-- GuidedSetup.swift&#45;&gt;Project.swift -->
<g id="edge15" class="edge">
<title>GuidedSetup.swift&#45;&gt;Project.swift</title>
<path fill="none" stroke="black" d="M637.71,-129.72C662.1,-136.75 690.28,-144.88 714.1,-151.74"/>
<polygon fill="black" stroke="black" points="713.02,-155.07 723.6,-154.48 714.96,-148.35 713.02,-155.07"/>
</g>
<!-- SPMProjectSetupGuide.swift -->
<g id="node10" class="node">
<title>SPMProjectSetupGuide.swift</title>
<polygon fill="white" stroke="white" points="856.25,-77 679.75,-77 679.75,-41 856.25,-41 856.25,-77"/>
<text text-anchor="middle" x="768" y="-53.95" font-family="Times,serif" font-size="14.00">SPMProjectSetupGuide.swift</text>
</g>
<!-- GuidedSetup.swift&#45;&gt;SPMProjectSetupGuide.swift -->
<g id="edge16" class="edge">
<title>GuidedSetup.swift&#45;&gt;SPMProjectSetupGuide.swift</title>
<path fill="none" stroke="black" d="M637.71,-96.28C654.96,-91.31 674.11,-85.79 692.27,-80.55"/>
<polygon fill="black" stroke="black" points="693.03,-83.98 701.66,-77.84 691.09,-77.25 693.03,-83.98"/>
</g>
<!-- Scan.swift&#45;&gt;Project.swift -->
<g id="edge17" class="edge">
<title>Scan.swift&#45;&gt;Project.swift</title>
<path fill="none" stroke="black" d="M437.78,-289.56C452.71,-285.78 470.18,-281.05 485.75,-276 566.95,-249.68 658.76,-212.69 714.76,-189.28"/>
<polygon fill="black" stroke="black" points="715.86,-192.62 723.73,-185.52 713.16,-186.16 715.86,-192.62"/>
</g>
<!-- UpdateChecker.swift&#45;&gt;Version.swift -->
<g id="edge18" class="edge">
<title>UpdateChecker.swift&#45;&gt;Version.swift</title>
<path fill="none" stroke="black" d="M644.19,-378.08C666.43,-375.35 691.11,-372.32 712.48,-369.7"/>
<polygon fill="black" stroke="black" points="712.64,-373.2 722.14,-368.51 711.79,-366.25 712.64,-373.2"/>
</g>
<!-- main.swift -->
<g id="node14" class="node">
<title>main.swift</title>
<polygon fill="white" stroke="white" points="74.5,-131 0,-131 0,-95 74.5,-95 74.5,-131"/>
<text text-anchor="middle" x="37.25" y="-107.95" font-family="Times,serif" font-size="14.00">main.swift</text>
</g>
<!-- main.swift&#45;&gt;Commands/CheckUpdateCommand.swift -->
<g id="edge19" class="edge">
<title>main.swift&#45;&gt;Commands/CheckUpdateCommand.swift</title>
<path fill="none" stroke="black" d="M48.08,-131.23C58.99,-149.73 78.29,-177.89 102.5,-194 104.34,-195.22 106.23,-196.39 108.17,-197.51"/>
<polygon fill="black" stroke="black" points="106.35,-200.51 116.84,-201.97 109.55,-194.28 106.35,-200.51"/>
</g>
<!-- main.swift&#45;&gt;Commands/ClearCacheCommand.swift -->
<g id="edge20" class="edge">
<title>main.swift&#45;&gt;Commands/ClearCacheCommand.swift</title>
<path fill="none" stroke="black" d="M74.98,-96.65C83.9,-92.93 93.48,-89.15 102.5,-86 107.55,-84.24 112.77,-82.51 118.06,-80.83"/>
<polygon fill="black" stroke="black" points="119,-84.2 127.52,-77.9 116.93,-77.51 119,-84.2"/>
</g>
<!-- main.swift&#45;&gt;Commands/FrontendCommand.swift -->
<g id="edge21" class="edge">
<title>main.swift&#45;&gt;Commands/FrontendCommand.swift</title>
<path fill="none" stroke="black" d="M46.54,-94.81C56.62,-75.17 75.67,-44.96 102.5,-32 176.93,3.97 221.44,16.34 288.5,-32 329.55,-61.58 289.1,-103.85 324.5,-140 325.1,-140.62 325.72,-141.22 326.35,-141.81"/>
<polygon fill="black" stroke="black" points="324.03,-144.43 334.08,-147.79 328.31,-138.9 324.03,-144.43"/>
</g>
<!-- main.swift&#45;&gt;Commands/ScanCommand.swift -->
<g id="edge22" class="edge">
<title>main.swift&#45;&gt;Commands/ScanCommand.swift</title>
<path fill="none" stroke="black" d="M74.61,-113C88.79,-113 105.61,-113 122.21,-113"/>
<polygon fill="black" stroke="black" points="122.12,-116.5 132.12,-113 122.12,-109.5 122.12,-116.5"/>
</g>
<!-- main.swift&#45;&gt;Commands/VersionCommand.swift -->
<g id="edge23" class="edge">
<title>main.swift&#45;&gt;Commands/VersionCommand.swift</title>
<path fill="none" stroke="black" d="M74.98,-129.35C83.9,-133.07 93.48,-136.85 102.5,-140 107.55,-141.76 112.77,-143.49 118.06,-145.17"/>
<polygon fill="black" stroke="black" points="116.93,-148.49 127.52,-148.1 119,-141.8 116.93,-148.49"/>
</g>
</g>
</svg>
