<?xml version="1.0" encoding="UTF-8" standalone="no"?>
<!DOCTYPE svg PUBLIC "-//W3C//DTD SVG 1.1//EN"
 "http://www.w3.org/Graphics/SVG/1.1/DTD/svg11.dtd">
<!-- Generated by graphviz version 9.0.0 (20230911.1827)
 -->
<!-- Pages: 1 -->
<svg width="728pt" height="545pt"
 viewBox="0.00 0.00 728.25 545.00" xmlns="http://www.w3.org/2000/svg" xmlns:xlink="http://www.w3.org/1999/xlink">
<g id="graph0" class="graph" transform="scale(1 1) rotate(0) translate(4 541)">
<polygon fill="#000000" fill-opacity="0.062745" stroke="none" points="-4,4 -4,-541 724.25,-541 724.25,4 -4,4"/>
<!-- s:8Frontend18CheckUpdateCommandV -->
<g id="node1" class="node">
<title>s:8Frontend18CheckUpdateCommandV</title>
<polygon fill="#000000" fill-opacity="0.062745" stroke="#000000" stroke-opacity="0.062745" points="392.75,-367 211.75,-367 211.75,-331 392.75,-331 392.75,-367"/>
<text text-anchor="middle" x="302.25" y="-343.95" font-family="Times,serif" font-size="14.00">struct CheckUpdateCommand</text>
</g>
<!-- s:8Frontend0A7CommandP -->
<g id="node3" class="node">
<title>s:8Frontend0A7CommandP</title>
<polygon fill="#000000" fill-opacity="0.062745" stroke="#000000" stroke-opacity="0.062745" points="600,-244 428.75,-244 428.75,-208 600,-208 600,-244"/>
<text text-anchor="middle" x="514.38" y="-220.95" font-family="Times,serif" font-size="14.00">protocol FrontendCommand</text>
</g>
<!-- s:8Frontend18CheckUpdateCommandV&#45;&gt;s:8Frontend0A7CommandP -->
<g id="edge13" class="edge">
<title>s:8Frontend18CheckUpdateCommandV&#45;&gt;s:8Frontend0A7CommandP</title>
<path fill="none" stroke="black" d="M373.66,-330.57C380.25,-328.02 386.71,-325.16 392.75,-322 428.28,-303.39 463.54,-273.67 486.68,-252.23"/>
<polygon fill="black" stroke="black" points="488.95,-254.9 493.83,-245.49 484.15,-249.8 488.95,-254.9"/>
</g>
<!-- s:8Frontend17ClearCacheCommandV -->
<g id="node2" class="node">
<title>s:8Frontend17ClearCacheCommandV</title>
<polygon fill="#000000" fill-opacity="0.062745" stroke="#000000" stroke-opacity="0.062745" points="387.5,-313 217,-313 217,-277 387.5,-277 387.5,-313"/>
<text text-anchor="middle" x="302.25" y="-289.95" font-family="Times,serif" font-size="14.00">struct ClearCacheCommand</text>
</g>
<!-- s:8Frontend17ClearCacheCommandV&#45;&gt;s:8Frontend0A7CommandP -->
<g id="edge12" class="edge">
<title>s:8Frontend17ClearCacheCommandV&#45;&gt;s:8Frontend0A7CommandP</title>
<path fill="none" stroke="black" d="M359.56,-276.51C386.28,-267.73 418.41,-257.18 446.38,-248"/>
<polygon fill="black" stroke="black" points="447.43,-251.34 455.84,-244.89 445.24,-244.69 447.43,-251.34"/>
</g>
<!-- s:e:s:8Frontend0A7CommandPAAE11_errorLabelSSvpZ -->
<g id="node4" class="node">
<title>s:e:s:8Frontend0A7CommandPAAE11_errorLabelSSvpZ</title>
<polygon fill="#000000" fill-opacity="0.062745" stroke="#000000" stroke-opacity="0.062745" points="391.25,-167 213.25,-167 213.25,-131 391.25,-131 391.25,-167"/>
<text text-anchor="middle" x="302.25" y="-143.95" font-family="Times,serif" font-size="14.00">extension FrontendCommand</text>
</g>
<!-- s:e:s:8Frontend0A7CommandPAAE11_errorLabelSSvpZ&#45;&gt;s:8Frontend0A7CommandP -->
<g id="edge15" class="edge">
<title>s:e:s:8Frontend0A7CommandPAAE11_errorLabelSSvpZ&#45;&gt;s:8Frontend0A7CommandP</title>
<path fill="none" stroke="black" d="M367.07,-167.4C375.74,-170.15 384.5,-173.05 392.75,-176 415.58,-184.15 440.38,-194.22 461.53,-203.18"/>
<polygon fill="black" stroke="black" points="459.94,-206.3 470.51,-207.01 462.69,-199.87 459.94,-206.3"/>
</g>
<!-- s:8Frontend12ScanBehaviorC -->
<g id="node5" class="node">
<title>s:8Frontend12ScanBehaviorC</title>
<polygon fill="#000000" fill-opacity="0.062745" stroke="#000000" stroke-opacity="0.062745" points="363.12,-36 241.38,-36 241.38,0 363.12,0 363.12,-36"/>
<text text-anchor="middle" x="302.25" y="-12.95" font-family="Times,serif" font-size="14.00">class ScanBehavior</text>
</g>
<!-- s:8Frontend11GuidedSetupC -->
<g id="node11" class="node">
<title>s:8Frontend11GuidedSetupC</title>
<polygon fill="#000000" fill-opacity="0.062745" stroke="#000000" stroke-opacity="0.062745" points="572.62,-59 456.12,-59 456.12,-23 572.62,-23 572.62,-59"/>
<text text-anchor="middle" x="514.38" y="-35.95" font-family="Times,serif" font-size="14.00">class GuidedSetup</text>
</g>
<!-- s:8Frontend12ScanBehaviorC&#45;&gt;s:8Frontend11GuidedSetupC -->
<g id="edge4" class="edge">
<title>s:8Frontend12ScanBehaviorC&#45;&gt;s:8Frontend11GuidedSetupC</title>
<path fill="none" stroke="black" d="M363.46,-24.59C388.71,-27.35 418.21,-30.58 444.34,-33.44"/>
<polygon fill="black" stroke="black" points="443.86,-36.91 454.18,-34.52 444.62,-29.95 443.86,-36.91"/>
</g>
<!-- s:8Frontend7ProjectC -->
<g id="node12" class="node">
<title>s:8Frontend7ProjectC</title>
<polygon fill="#000000" fill-opacity="0.062745" stroke="#000000" stroke-opacity="0.062745" points="720.25,-59 636,-59 636,-23 720.25,-23 720.25,-59"/>
<text text-anchor="middle" x="678.12" y="-35.95" font-family="Times,serif" font-size="14.00">class Project</text>
</g>
<!-- s:8Frontend12ScanBehaviorC&#45;&gt;s:8Frontend7ProjectC -->
<g id="edge5" class="edge">
<title>s:8Frontend12ScanBehaviorC&#45;&gt;s:8Frontend7ProjectC</title>
<path fill="none" stroke="black" d="M363.42,-10.85C423.73,-5.17 518.98,-0.23 600,-14 608.27,-15.41 616.83,-17.6 625.1,-20.15"/>
<polygon fill="black" stroke="black" points="623.74,-23.38 634.34,-23.18 625.93,-16.73 623.74,-23.38"/>
</g>
<!-- s:8Frontend11ScanCommandV -->
<g id="node6" class="node">
<title>s:8Frontend11ScanCommandV</title>
<polygon fill="#000000" fill-opacity="0.062745" stroke="#000000" stroke-opacity="0.062745" points="369.12,-113 235.38,-113 235.38,-77 369.12,-77 369.12,-113"/>
<text text-anchor="middle" x="302.25" y="-89.95" font-family="Times,serif" font-size="14.00">struct ScanCommand</text>
</g>
<!-- s:8Frontend11ScanCommandV&#45;&gt;s:8Frontend0A7CommandP -->
<g id="edge2" class="edge">
<title>s:8Frontend11ScanCommandV&#45;&gt;s:8Frontend0A7CommandP</title>
<path fill="none" stroke="black" d="M369.55,-111.55C377.58,-114.55 385.5,-118.02 392.75,-122 430.09,-142.51 466.18,-176 489,-199.42"/>
<polygon fill="black" stroke="black" points="486.29,-201.66 495.73,-206.46 491.35,-196.82 486.29,-201.66"/>
</g>
<!-- s:8Frontend4ScanC -->
<g id="node14" class="node">
<title>s:8Frontend4ScanC</title>
<polygon fill="#000000" fill-opacity="0.062745" stroke="#000000" stroke-opacity="0.062745" points="550.5,-113 478.25,-113 478.25,-77 550.5,-77 550.5,-113"/>
<text text-anchor="middle" x="514.38" y="-89.95" font-family="Times,serif" font-size="14.00">class Scan</text>
</g>
<!-- s:8Frontend11ScanCommandV&#45;&gt;s:8Frontend4ScanC -->
<g id="edge3" class="edge">
<title>s:8Frontend11ScanCommandV&#45;&gt;s:8Frontend4ScanC</title>
<path fill="none" stroke="black" d="M369.45,-95C401.06,-95 438.14,-95 466.74,-95"/>
<polygon fill="black" stroke="black" points="466.53,-98.5 476.53,-95 466.53,-91.5 466.53,-98.5"/>
</g>
<!-- s:e:s:6Shared12OutputFormatOs:14ArgumentParser013ExpressibleByA0P -->
<g id="node7" class="node">
<title>s:e:s:6Shared12OutputFormatOs:14ArgumentParser013ExpressibleByA0P</title>
<polygon fill="#000000" fill-opacity="0.062745" stroke="#000000" stroke-opacity="0.062745" points="162.25,-321 13.5,-321 13.5,-285 162.25,-285 162.25,-321"/>
<text text-anchor="middle" x="87.88" y="-297.95" font-family="Times,serif" font-size="14.00">extension OutputFormat</text>
</g>
<!-- s:e:s:13SystemPackage8FilePathV8FrontendE8argumentACSgSS_tcfc -->
<g id="node8" class="node">
<title>s:e:s:13SystemPackage8FilePathV8FrontendE8argumentACSgSS_tcfc</title>
<polygon fill="#000000" fill-opacity="0.062745" stroke="#000000" stroke-opacity="0.062745" points="146.12,-375 29.62,-375 29.62,-339 146.12,-339 146.12,-375"/>
<text text-anchor="middle" x="87.88" y="-351.95" font-family="Times,serif" font-size="14.00">extension FilePath</text>
</g>
<!-- s:8Frontend14VersionCommandV -->
<g id="node9" class="node">
<title>s:8Frontend14VersionCommandV</title>
<polygon fill="#000000" fill-opacity="0.062745" stroke="#000000" stroke-opacity="0.062745" points="376.25,-221 228.25,-221 228.25,-185 376.25,-185 376.25,-221"/>
<text text-anchor="middle" x="302.25" y="-197.95" font-family="Times,serif" font-size="14.00">struct VersionCommand</text>
</g>
<!-- s:8Frontend14VersionCommandV&#45;&gt;s:8Frontend0A7CommandP -->
<g id="edge6" class="edge">
<title>s:8Frontend14VersionCommandV&#45;&gt;s:8Frontend0A7CommandP</title>
<path fill="none" stroke="black" d="M376.74,-211.04C389.78,-212.47 403.53,-213.98 417.09,-215.46"/>
<polygon fill="black" stroke="black" points="416.58,-218.93 426.9,-216.53 417.34,-211.97 416.58,-218.93"/>
</g>
<!-- s:8Frontend16CommonSetupGuideC -->
<g id="node10" class="node">
<title>s:8Frontend16CommonSetupGuideC</title>
<polygon fill="#000000" fill-opacity="0.062745" stroke="#000000" stroke-opacity="0.062745" points="168.62,-429 7.12,-429 7.12,-393 168.62,-393 168.62,-429"/>
<text text-anchor="middle" x="87.88" y="-405.95" font-family="Times,serif" font-size="14.00">class CommonSetupGuide</text>
</g>
<!-- s:8Frontend11GuidedSetupC&#45;&gt;s:8Frontend7ProjectC -->
<g id="edge1" class="edge">
<title>s:8Frontend11GuidedSetupC&#45;&gt;s:8Frontend7ProjectC</title>
<path fill="none" stroke="black" d="M572.86,-41C589.68,-41 607.98,-41 624.48,-41"/>
<polygon fill="black" stroke="black" points="624.07,-44.5 634.07,-41 624.07,-37.5 624.07,-44.5"/>
</g>
<!-- s:8Frontend20SPMProjectSetupGuideC -->
<g id="node13" class="node">
<title>s:8Frontend20SPMProjectSetupGuideC</title>
<polygon fill="#000000" fill-opacity="0.062745" stroke="#000000" stroke-opacity="0.062745" points="175.75,-483 0,-483 0,-447 175.75,-447 175.75,-483"/>
<text text-anchor="middle" x="87.88" y="-459.95" font-family="Times,serif" font-size="14.00">class SPMProjectSetupGuide</text>
</g>
<!-- s:8Frontend4ScanC&#45;&gt;s:8Frontend7ProjectC -->
<g id="edge14" class="edge">
<title>s:8Frontend4ScanC&#45;&gt;s:8Frontend7ProjectC</title>
<path fill="none" stroke="black" d="M550.86,-83.92C566.03,-79.12 583.91,-73.38 600,-68 608.04,-65.31 616.54,-62.4 624.83,-59.53"/>
<polygon fill="black" stroke="black" points="625.85,-62.88 634.14,-56.28 623.55,-56.27 625.85,-62.88"/>
</g>
<!-- s:8Frontend13UpdateCheckerC -->
<g id="node15" class="node">
<title>s:8Frontend13UpdateCheckerC</title>
<polygon fill="#000000" fill-opacity="0.062745" stroke="#000000" stroke-opacity="0.062745" points="152.88,-537 22.88,-537 22.88,-501 152.88,-501 152.88,-537"/>
<text text-anchor="middle" x="87.88" y="-513.95" font-family="Times,serif" font-size="14.00">class UpdateChecker</text>
</g>
<!-- s:8Frontend16PeripheryCommandV -->
<g id="node16" class="node">
<title>s:8Frontend16PeripheryCommandV</title>
<polygon fill="#000000" fill-opacity="0.062745" stroke="#000000" stroke-opacity="0.062745" points="167.88,-267 7.88,-267 7.88,-231 167.88,-231 167.88,-267"/>
<text text-anchor="middle" x="87.88" y="-243.95" font-family="Times,serif" font-size="14.00">struct PeripheryCommand</text>
</g>
<!-- s:8Frontend16PeripheryCommandV&#45;&gt;s:8Frontend18CheckUpdateCommandV -->
<g id="edge11" class="edge">
<title>s:8Frontend16PeripheryCommandV&#45;&gt;s:8Frontend18CheckUpdateCommandV</title>
<path fill="none" stroke="black" d="M160.71,-267.39C165.99,-269.92 171.07,-272.77 175.75,-276 197.12,-290.75 190.32,-307.34 211.75,-322 213.36,-323.1 215.02,-324.16 216.72,-325.18"/>
<polygon fill="black" stroke="black" points="214.99,-328.22 225.46,-329.83 218.28,-322.04 214.99,-328.22"/>
</g>
<!-- s:8Frontend16PeripheryCommandV&#45;&gt;s:8Frontend17ClearCacheCommandV -->
<g id="edge10" class="edge">
<title>s:8Frontend16PeripheryCommandV&#45;&gt;s:8Frontend17ClearCacheCommandV</title>
<path fill="none" stroke="black" d="M168.26,-266.19C180.47,-268.84 193.18,-271.59 205.7,-274.3"/>
<polygon fill="black" stroke="black" points="204.64,-277.66 215.15,-276.35 206.12,-270.81 204.64,-277.66"/>
</g>
<!-- s:8Frontend16PeripheryCommandV&#45;&gt;s:8Frontend0A7CommandP -->
<g id="edge7" class="edge">
<title>s:8Frontend16PeripheryCommandV&#45;&gt;s:8Frontend0A7CommandP</title>
<path fill="none" stroke="black" d="M168.22,-244.7C238.75,-240.88 342.05,-235.28 417.25,-231.21"/>
<polygon fill="black" stroke="black" points="417.29,-234.71 427.08,-230.68 416.91,-227.72 417.29,-234.71"/>
</g>
<!-- s:8Frontend16PeripheryCommandV&#45;&gt;s:8Frontend11ScanCommandV -->
<g id="edge8" class="edge">
<title>s:8Frontend16PeripheryCommandV&#45;&gt;s:8Frontend11ScanCommandV</title>
<path fill="none" stroke="black" d="M101.79,-230.59C122.08,-202.99 164.07,-151.06 211.75,-122 215.8,-119.53 220.1,-117.27 224.53,-115.21"/>
<polygon fill="black" stroke="black" points="225.82,-118.46 233.66,-111.33 223.09,-112.02 225.82,-118.46"/>
</g>
<!-- s:8Frontend16PeripheryCommandV&#45;&gt;s:8Frontend14VersionCommandV -->
<g id="edge9" class="edge">
<title>s:8Frontend16PeripheryCommandV&#45;&gt;s:8Frontend14VersionCommandV</title>
<path fill="none" stroke="black" d="M168.26,-231.81C184.15,-228.36 200.9,-224.74 216.95,-221.26"/>
<polygon fill="black" stroke="black" points="217.42,-224.74 226.45,-219.2 215.93,-217.9 217.42,-224.74"/>
</g>
</g>
</svg>
